<svg width="2280" height="446" viewBox="0 0 2280 446" fill="none" xmlns="http://www.w3.org/2000/svg">
<path fill-rule="evenodd" clip-rule="evenodd" d="M204.555 103.927C208.692 90.957 213.037 69.8941 201.014 57.6636C194.944 51.7494 186.462 48.3124 174.75 48.3124C145.841 48.3124 126.567 62.5272 121.704 87.5978C115.634 118.349 145.97 133.29 178.758 150.332C220.676 172.122 267.289 200.889 259.313 259.071C248.665 333.466 195.995 359.924 99.8238 359.924C65.6096 359.924 21.8366 345.1 10.8512 325.502C0.579178 307.332 -4.7514 281.989 5.5855 243.559L86.5428 243.417C81.9904 255.128 77.4639 287.189 87.9176 298.707C94.6878 306.203 106.088 309.9 122.689 309.9C150.977 309.9 170.133 294.751 175.269 268.098C181.066 238.942 149.667 219.734 117.1 201.68C75.5574 178.373 29.0867 154.159 40.2796 97.1565C53.0419 32.3206 101.678 0 188.887 0C231.817 0 259.845 9.46796 274.916 27.3144C289.079 44.1621 291.504 69.8422 282.218 103.797L204.555 103.927V103.927ZM631.597 352.726L661.492 187.244C663.788 174.884 665.176 161.123 658.393 152.901C654.255 148.037 647.861 145.663 638.964 145.663C613.31 145.663 606.202 165.274 602.298 186.466L571.819 352.726H504.351L547.929 112.798H614.931L608.874 138.802L613.88 138.673C629.82 119.374 653.244 108.336 681.609 108.336C700.972 108.336 717.353 114.782 726.627 125.755C734.019 134.458 736.522 145.962 734.149 158.802L698.923 352.713H631.597V352.726V352.726ZM829.14 285.088H832.564L904.183 112.811H968.681L809.711 445.421H738.624L781.865 357.084L756.016 112.811H823.407L829.14 285.088Z" fill="#A6A6A6"/>
<path fill-rule="evenodd" clip-rule="evenodd" d="M1307.32 81.3463H1302.02L1184.06 351.027H1115.12L1097.03 81.3463H1091.84L1043.92 351.027H974.271L1035.81 6.25146H1154.11L1168.73 244.117H1173.38L1275.6 6.25146H1390.28L1328.8 351.027H1259.41L1307.32 81.3463V81.3463Z" fill="#A6A6A6"/>
<path fill-rule="evenodd" clip-rule="evenodd" d="M1503.15 327.785L1499.27 328.174C1482.35 348.251 1461.51 357.719 1433.06 357.719C1413.71 357.719 1397.24 351.545 1387.97 340.482C1380.77 331.728 1378.01 320.353 1380.52 307.435L1415.61 112.798H1483.75L1453 279.861C1450.82 291.91 1449.46 305.412 1456.09 313.375C1460.09 318.109 1466.62 320.535 1475.72 320.535C1501.39 320.535 1508.42 301.391 1512.22 280.782L1542.39 112.798H1610.5L1574.91 306.527C1572.28 321.814 1570.52 337.238 1569.65 352.726H1499.56L1503.15 327.785V327.785ZM1749.07 180.098C1755.05 167.05 1752.5 152.836 1747.55 147.777C1742.9 142.512 1735.57 141.785 1728.4 141.785C1711.47 141.785 1699.85 152.057 1696.61 170.021C1693.45 187.932 1714.37 197.413 1738.66 208.191C1772.63 223.651 1810.95 241.108 1802.9 285.205C1795.14 328.589 1751.55 357.732 1694.83 357.732C1652.89 357.732 1628.74 351.027 1616.69 335.489C1606.51 322.791 1604.58 303.83 1610.84 277.709H1677.84C1674.9 286.904 1672.19 299.083 1675.48 307.059C1679.31 316.332 1686.88 320.548 1701.88 320.548C1716.17 320.548 1732.15 312.182 1735.57 293.363C1740.25 268.228 1715.05 257.087 1688.37 245.375C1655.87 230.978 1622.28 216.284 1629.66 175.144C1641.14 113.226 1718.48 108.349 1742.03 108.349C1773.16 108.349 1797.05 117.091 1809.24 132.888C1818.64 145.067 1821.35 160.669 1816.36 180.098H1749.07V180.098ZM1949.17 8.01514L1939.12 62.5271H1871.51L1881.9 8.01514H1949.17ZM1930.22 112.811L1887.19 352.739H1819.76L1862.62 112.811H1930.22V112.811ZM2086.79 196.284C2091.81 178.308 2090.41 162.978 2083.9 155.196C2079.24 149.749 2072.25 147.181 2061.53 147.181C2027.96 147.181 2020.84 176.998 2011.96 225.713C2002.07 279.615 2001.78 301.287 2010.52 311.728C2014.67 316.812 2021.18 319.043 2031.24 319.043C2060.68 319.043 2075.37 285.218 2075.87 265.919H2143.16C2135.99 322.986 2093.13 357.732 2023.29 357.732C1988.13 357.732 1964.69 350.184 1951.48 334.296C1933.19 312.519 1935.08 277.112 1943.58 230.447C1955.3 166.13 1973.67 108.336 2069.43 108.336C2105.49 108.336 2130.66 116.702 2144.4 133.277C2156.63 147.751 2160.72 168.218 2155.65 196.271H2086.79V196.284V196.284Z" fill="#A6A6A6"/>
<path fill-rule="evenodd" clip-rule="evenodd" d="M288.936 230.46C300.531 166.143 318.935 108.35 414.795 108.35C450.137 108.35 473.833 116.17 487.257 132.305C506.089 154.885 502.34 192.277 495.622 229.591C480.616 312.701 455.805 357.732 368.648 357.732C333.357 357.732 310.012 350.184 296.77 334.296C278.469 312.533 280.454 277.112 288.936 230.46V230.46ZM428.672 226.634C434.872 192.277 438.412 167.258 428.543 155.196C423.938 149.749 416.831 147.181 406.831 147.181C373.265 147.181 366.21 176.999 357.196 225.713C347.378 279.615 347.118 301.288 355.743 311.728C359.907 316.813 366.417 319.043 376.547 319.043C405.314 319.043 415.106 301.807 428.672 226.634V226.634Z" fill="#A6A6A6"/>
<path fill-rule="evenodd" clip-rule="evenodd" d="M2187.51 314.296H2169.02V308.901H2212.52V314.296H2193.84V352.609H2187.51V314.296V314.296ZM2227.33 313.518H2227.2V352.609H2220.9V308.901H2231.08L2250.16 347.265L2269.46 308.901H2279.42V352.609H2273.21V313.518H2273.09L2253.53 352.609H2246.89L2227.33 313.518Z" fill="#A6A6A6"/>
</svg>
