<svg width="2500" height="1340" viewBox="0 0 2500 1340" fill="none" xmlns="http://www.w3.org/2000/svg">
<g clip-path="url(#clip0)">
<path d="M2496.16 989.051C2496.15 997.493 2492.79 1005.58 2486.82 1011.55C2480.85 1017.52 2472.75 1020.88 2464.31 1020.89C2460.13 1020.9 2455.98 1020.07 2452.12 1018.47C2448.26 1016.86 2444.76 1014.5 2441.82 1011.52C2438.85 1008.58 2436.49 1005.08 2434.89 1001.22C2433.29 997.356 2432.47 993.214 2432.48 989.034C2432.48 980.514 2435.79 972.529 2441.82 966.535C2447.81 960.506 2455.79 957.216 2464.31 957.216C2472.83 957.216 2480.78 960.506 2486.81 966.535C2489.77 969.486 2492.13 972.995 2493.73 976.859C2495.34 980.723 2496.16 984.866 2496.16 989.051V989.051ZM2464.31 953.415C2454.87 953.422 2445.81 957.177 2439.13 963.855C2432.46 970.534 2428.7 979.59 2428.7 989.034C2428.7 998.591 2432.42 1007.54 2439.14 1014.21C2442.44 1017.54 2446.36 1020.17 2450.69 1021.97C2455.01 1023.76 2459.65 1024.68 2464.34 1024.66C2473.85 1024.66 2482.79 1020.97 2489.51 1014.21C2492.85 1010.92 2495.49 1007 2497.28 1002.68C2499.08 998.355 2499.99 993.715 2499.96 989.034C2499.98 984.351 2499.06 979.712 2497.27 975.387C2495.47 971.062 2492.84 967.136 2489.51 963.839C2486.21 960.527 2482.28 957.901 2477.95 956.112C2473.63 954.323 2468.99 953.406 2464.31 953.415" fill="#A6A6A6"/>
<path d="M2458.65 971.79V984.68C2458.65 984.68 2472.05 985.564 2472.05 978.312C2472.05 969.885 2458.65 971.705 2458.65 971.79V971.79ZM2458.65 992.826V1013.32H2449.97V964.52C2460.66 964.52 2479.56 961.722 2479.56 978.082C2479.56 988.532 2471.78 991.253 2471.78 991.253L2482.22 1013.33H2473.59L2463.61 992.843L2458.65 992.826ZM1883.73 817.657V667.692C1883.73 667.692 1881.59 599.592 1813.28 599.592C1770.48 599.592 1742.81 637.43 1742.81 667.692C1742.81 715.861 1786.94 735.749 1813.28 735.749C1829.05 735.749 1839.63 733.028 1863.09 716.515C1863.09 775.687 1862.39 810.243 1863.09 810.081C1847.42 814.214 1841.72 817.504 1813.28 817.504C1726.45 817.504 1658.26 748.852 1658.26 667.683C1658.26 564.526 1750.8 517.862 1813.28 517.862C1891.54 517.862 1968.29 578.258 1968.29 667.683C1968.29 722.714 1968.44 721.353 1968.44 736.48V817.742L1883.73 817.657ZM1260.4 679.698V525.404L1345.83 488.271V697.018C1345.83 860.733 1073.93 860.733 1073.93 699.773V607.151L1159.33 569.389V680.497C1159.32 757.576 1260.4 756.76 1260.4 679.698" fill="#A6A6A6"/>
<path d="M1644.76 821.05C1644.76 821.05 1601.58 823.712 1573.63 808.678C1522.35 781.154 1528.03 700.725 1528.03 700.725V543.898H1472.54V461.292H1528.03V410.402L1613.47 371.909V464.064H1668.97V545.258H1613.47V706.881C1613.47 706.881 1614.9 745.34 1644.78 745.34L1644.76 821.05V821.05ZM1368.59 525.251H1453.99V817.436H1368.59V525.251ZM1368.59 502.599L1453.99 502.029V442.033L1368.59 479.199V502.599Z" fill="#A6A6A6"/>
<path d="M2146.42 505.328V592.024C2083.79 592.024 2086.59 629.148 2086.59 663.551V817.657H2001.18V614.021C2001.18 508.092 2088.06 505.328 2146.42 505.328V505.328ZM1986.05 219.35C1983.35 213.525 1972.28 212.726 1960.01 217.003L1956.54 209.435L1960.15 207.752L1957.14 102.775L1879.34 32.2261L1875.7 33.9097L1872.2 26.3421C1883.44 19.7863 1890.01 10.8583 1887.37 5.05078C1884.25 -1.6155 1870.2 -1.68353 1855.96 4.87222C1841.65 11.4875 1832.59 22.2182 1835.63 28.8674C1838.28 34.6834 1849.34 35.4912 1861.62 31.2143L1865.16 38.7818L1800.12 68.7291L1796.65 61.1275C1807.85 54.6143 1814.5 45.6777 1811.79 39.8702C1808.71 33.1869 1794.65 33.1104 1780.37 39.7342C1766.07 46.2814 1757.01 57.0036 1760.04 63.6954C1762.73 69.5114 1773.81 70.2766 1786.07 65.9997L1789.57 73.5588L1726.99 102.435L1723.52 94.8671C1734.75 88.2773 1741.36 79.3493 1738.64 73.5333C1735.58 66.884 1721.5 66.8075 1707.23 73.3632C1692.93 79.9785 1683.9 90.7007 1686.91 97.3499C1689.6 103.174 1700.67 103.974 1712.94 99.6967L1716.44 107.264L1708.71 110.802L1685.06 177.107L810.612 575.664C769.203 538.923 698.807 531.109 633.819 561.09C551.681 598.894 509.43 682.367 539.42 747.483C569.41 812.632 660.306 834.774 742.444 796.936C801.616 769.65 839.93 718.675 845.576 667.955L888.873 647.846C891.883 646.664 917.876 637.438 947.509 667.113C964.812 705.887 980.228 747.687 970.373 773.944C968.587 778.723 963.12 793.22 934.159 806.102C914.79 814.724 897.903 818.542 876.501 823.371C844.734 830.514 805.144 839.45 744.093 867.561C691.027 891.99 661.182 939.096 629.551 989.017C587.232 1055.79 539.275 1131.44 420.745 1186.01C389.148 1200.55 360.034 1202.54 331.702 1192.08C244.615 1159.93 177.425 1014.02 155.403 966.11C110.422 868.411 54.1329 729.074 84.6414 646.468C93.9946 621.18 111.434 602.967 137.955 590.706C258.22 535.327 343.895 539.493 419.41 543.166C474.73 545.802 526.955 548.319 578.278 524.706C639.329 496.613 665.433 475.347 686.41 458.29C700.312 446.973 710.371 438.81 729.069 430.197C754.05 418.675 778.36 417.383 801.165 426.311C835.704 439.83 859.589 472.609 870.421 498.824L940.723 469.71C918.973 417.068 877.181 374.366 828.919 355.447C786.676 338.909 741.168 340.831 697.242 361.085C669.812 373.703 653.843 386.687 638.428 399.229C619.798 414.364 598.745 431.498 546.443 455.586C512.049 471.427 472.816 469.497 423.142 467.116C342.994 463.23 243.306 458.435 106.171 521.586C60.9863 542.427 29.7466 575.554 13.2849 620.118C-26.5767 728.003 31.3621 878.7 86.2824 997.97C130.243 1093.45 200.757 1224.9 305.318 1263.46C352.883 1281.04 402.421 1278.23 452.614 1255.15C591.466 1191.2 648.215 1101.65 693.816 1029.73C721.425 986.151 743.277 951.723 775.928 936.707C829.692 911.895 863.432 904.294 893.201 897.602C916.669 892.279 938.844 887.305 965.076 875.639C1003.64 858.497 1029.43 833.26 1041.62 800.643C1064.87 738.47 1032.83 669.715 1004.55 609.072L998.875 596.777L1723.53 260.708L1789.53 286.353L1797.23 282.782L1800.73 290.349C1789.49 296.896 1782.93 305.833 1785.61 311.64C1788.68 318.307 1802.74 318.366 1816.99 311.819C1831.28 305.195 1840.36 294.473 1837.3 287.824C1834.62 282.008 1823.57 281.208 1811.31 285.485L1807.81 277.918L1870.36 249.118L1873.86 256.686C1862.65 263.199 1856.06 272.136 1858.73 277.943C1861.81 284.635 1875.87 284.703 1890.12 278.122C1904.41 271.532 1913.52 260.81 1910.43 254.127C1907.75 248.311 1896.71 247.537 1884.41 251.822L1880.94 244.255L1945.96 214.333L1949.4 221.909C1938.2 228.422 1931.58 237.35 1934.28 243.166C1937.36 249.824 1951.41 249.901 1965.69 243.311C1980.02 236.764 1989.13 226.008 1986.05 219.35V219.35ZM1922.02 1264.69C1922.02 1264.69 1880.37 1267.1 1853.22 1252.32C1804.87 1225.98 1809.21 1131.09 1809.21 1131.09V964.596H1755.55V881.293H1809.21V845.811H1891.89L1891.75 884.065H1945.42V965.999H1891.75V1150.53C1891.75 1150.53 1893.14 1189.02 1922.02 1189.02V1264.69V1264.69Z" fill="#A6A6A6"/>
<path d="M1239.58 1258.78C1167.45 1341.13 1090.5 1340.01 1061.63 1340.01C914.968 1340.01 825.33 1215.48 825.33 1103.67C825.33 1002.71 892.903 893.061 1024.71 871.251C1107.64 857.485 1188.23 889.124 1244.38 952.208C1226.34 965.455 1185.5 996.686 1185.5 996.686C1140.98 955.813 1109.73 942.149 1061.63 942.149C1023.18 942.149 900.147 973.822 900.147 1103.67C900.147 1189.03 967.856 1265.79 1061.63 1265.19C1131.97 1264.81 1162.67 1228.72 1181.86 1210.69L1239.58 1258.78V1258.78ZM1684 1093.69V1261.8H1766.56V1068.96C1766.56 905.195 1503.74 905.195 1503.74 1066.2V1261.8H1586.33V1090.95C1586.33 1016.64 1684 1015.28 1684 1093.69V1093.69ZM2407.65 950.864V1037.56C2347.12 1037.56 2349.89 1074.65 2349.89 1109.05V1261.94H2267.32V1059.51C2267.34 963.049 2352.24 950.864 2407.65 950.864V950.864ZM2042.52 1049.38C2042.52 1049.38 2009.21 1079.52 2025.07 1120L2113.11 1031.94C2113.11 1031.92 2080.6 1015.25 2042.52 1049.38V1049.38ZM2066.45 1187.96C2065.86 1188.34 2085.93 1191.78 2091.68 1191.78C2135.4 1191.78 2157.01 1160.81 2157.01 1160.81C2157.01 1160.81 2228.81 1161.01 2239.07 1160.84C2239.07 1160.84 2220.1 1210.29 2185.91 1232.34C2054.27 1317.2 1971 1212.05 1954.64 1184.52C1930.02 1142.89 1916.64 1022.93 2009.96 971.11C2150.36 893.223 2228.61 1028.64 2228.61 1028.64L2066.45 1187.96Z" fill="#A6A6A6"/>
<path d="M1293.02 1049.38C1293.02 1049.38 1259.65 1079.49 1275.53 1120L1363.57 1031.96C1363.57 1031.96 1331.08 1015.28 1293.02 1049.38ZM1489.54 1160.86C1489.54 1160.86 1470.57 1210.31 1436.38 1232.35C1304.74 1317.26 1221.47 1212.11 1205.11 1184.54C1180.46 1142.92 1167.07 1022.95 1260.43 971.135C1400.83 893.231 1479.08 1028.62 1479.08 1028.62L1316.94 1187.96C1316.38 1188.34 1336.41 1191.78 1342.16 1191.78C1385.91 1191.78 1407.46 1160.81 1407.46 1160.81L1489.54 1160.86Z" fill="#A6A6A6"/>
</g>
<defs>
<clipPath id="clip0">
<rect width="2500" height="1340" fill="white"/>
</clipPath>
</defs>
</svg>
