<svg width="2006" height="1387" viewBox="0 0 2006 1387" fill="none" xmlns="http://www.w3.org/2000/svg">
<path fill-rule="evenodd" clip-rule="evenodd" d="M1983.17 1385.87H460.025L0 1.99731H463.241L721.677 917.455L976.883 1.99731H1983.17V1385.87V1385.87Z" fill="#A6A6A6"/>
<path fill-rule="evenodd" clip-rule="evenodd" d="M1384.28 1103.62C1384.28 1103.62 1403.58 1077.89 1436.36 1052.25C1671.04 868.922 2005.26 767.927 2005.26 438.015C2005.26 148.504 1770.89 0 1473.34 0C1151.17 0 947.286 233.962 952.915 566.286H1284.98C1284.98 395.759 1355.68 292.805 1487.26 292.805C1615.94 292.805 1664.2 381.921 1664.2 466.548C1664.2 566.312 1562.09 639.513 1498.73 682.534C1342.03 788.186 1138.9 891.853 1036.79 1050.29C976.935 1142.25 922.293 1255.71 929.349 1386.74H1983.18V1103.61H1384.28V1103.62V1103.62Z" fill="white"/>
</svg>
